<svg height="512pt" viewBox="0 0 512 512" width="512pt" xmlns="http://www.w3.org/2000/svg"><path d="m426.347656 138.847656h59.617188c9.574218.027344 17.328125 7.78125 17.355468 17.355469v321.085937c-.027343 9.574219-7.78125 17.328126-17.355468 17.355469h-190.914063c-.070312 9.554688-7.800781 17.285157-17.355469 17.355469h-52.066406c-9.574218-.027344-17.328125-7.78125-17.359375-17.355469h-190.914062c-9.574219-.027343-17.3281252-7.78125-17.355469-17.355469v-321.085937c.0273438-9.574219 7.78125-17.328125 17.355469-17.355469h59.617187" fill="#804537"/><path d="m327.855469 173.558594h-32.804688c-23.964843 0-43.390625 19.425781-43.390625 43.390625l-17.355468 108.472656 17.355468 117.15625c.03125 9.570313 7.785156 17.324219 17.355469 17.355469h190.917969c4.792968 0 8.675781-3.886719 8.675781-8.679688v-269.015625c0-4.792969-3.882813-8.679687-8.675781-8.679687h-26.902344" fill="#fac176"/><g fill="#f3d55b"><path d="m43.390625 34.710938c-4.792969 0-8.679687-3.882813-8.679687-8.675782v-17.355468c0-4.792969 3.886718-8.679688 8.679687-8.679688s8.675781 3.886719 8.675781 8.679688v17.355468c0 4.792969-3.882812 8.675782-8.675781 8.675782zm0 0"/><path d="m43.390625 86.78125c-4.792969 0-8.679687-3.886719-8.679687-8.679688v-17.355468c0-4.792969 3.886718-8.679688 8.679687-8.679688s8.675781 3.886719 8.675781 8.679688v17.355468c0 4.792969-3.882812 8.679688-8.675781 8.679688zm0 0"/><path d="m78.101562 52.066406h-17.355468c-4.792969 0-8.679688-3.882812-8.679688-8.675781s3.886719-8.679687 8.679688-8.679687h17.355468c4.792969 0 8.679688 3.886718 8.679688 8.679687s-3.886719 8.675781-8.679688 8.675781zm0 0"/><path d="m26.035156 52.066406h-17.355468c-4.792969 0-8.679688-3.882812-8.679688-8.675781s3.886719-8.679687 8.679688-8.679687h17.355468c4.792969 0 8.675782 3.886718 8.675782 8.679687s-3.882813 8.675781-8.675782 8.675781zm0 0"/><path d="m468.609375 52.066406c-4.792969 0-8.675781-3.882812-8.675781-8.675781v-17.355469c0-4.792968 3.882812-8.679687 8.675781-8.679687s8.679687 3.886719 8.679687 8.679687v17.355469c0 4.792969-3.886718 8.675781-8.679687 8.675781zm0 0"/><path d="m468.609375 104.136719c-4.792969 0-8.675781-3.886719-8.675781-8.679688v-17.355469c0-4.792968 3.882812-8.679687 8.675781-8.679687s8.679687 3.886719 8.679687 8.679687v17.355469c0 4.792969-3.886718 8.679688-8.679687 8.679688zm0 0"/><path d="m503.320312 69.421875h-17.355468c-4.792969 0-8.675782-3.882813-8.675782-8.675781 0-4.792969 3.882813-8.679688 8.675782-8.679688h17.355468c4.792969 0 8.679688 3.886719 8.679688 8.679688 0 4.792968-3.886719 8.675781-8.679688 8.675781zm0 0"/><path d="m451.253906 69.421875h-17.355468c-4.792969 0-8.679688-3.882813-8.679688-8.675781 0-4.792969 3.886719-8.679688 8.679688-8.679688h17.355468c4.792969 0 8.679688 3.886719 8.679688 8.679688 0 4.792968-3.886719 8.675781-8.679688 8.675781zm0 0"/></g><path d="m381.832031 321.085938c-4.792969 0-8.679687-3.886719-8.679687-8.679688v-17.355469c0-4.792969 3.886718-8.679687 8.679687-8.679687s8.675781 3.886718 8.675781 8.679687v17.355469c0 4.792969-3.882812 8.679688-8.675781 8.679688zm0 0" fill="#67b9cc"/><path d="m381.832031 373.152344c-4.792969 0-8.679687-3.886719-8.679687-8.679688v-17.355468c0-4.792969 3.886718-8.675782 8.679687-8.675782s8.675781 3.882813 8.675781 8.675782v17.355468c0 4.792969-3.882812 8.679688-8.675781 8.679688zm0 0" fill="#67b9cc"/><path d="m416.542969 338.441406h-17.355469c-4.792969 0-8.679688-3.886718-8.679688-8.679687s3.886719-8.675781 8.679688-8.675781h17.355469c4.792969 0 8.675781 3.882812 8.675781 8.675781s-3.882812 8.679687-8.675781 8.679687zm0 0" fill="#67b9cc"/><path d="m364.472656 338.441406h-17.355468c-4.792969 0-8.675782-3.886718-8.675782-8.679687s3.882813-8.675781 8.675782-8.675781h17.355468c4.792969 0 8.679688 3.882812 8.679688 8.675781s-3.886719 8.679687-8.679688 8.679687zm0 0" fill="#67b9cc"/><path d="m338.441406 295.050781c0 4.792969-3.886718 8.679688-8.679687 8.679688s-8.675781-3.886719-8.675781-8.679688 3.882812-8.679687 8.675781-8.679687 8.679687 3.886718 8.679687 8.679687zm0 0" fill="#f18d46"/><path d="m329.761719 364.472656c0 4.792969-3.882813 8.679688-8.675781 8.679688-4.792969 0-8.679688-3.886719-8.679688-8.679688 0-4.789062 3.886719-8.675781 8.679688-8.675781 4.792968 0 8.675781 3.886719 8.675781 8.675781zm0 0" fill="#f18d46"/><path d="m433.898438 381.832031c0 4.792969-3.886719 8.675781-8.679688 8.675781s-8.675781-3.882812-8.675781-8.675781 3.882812-8.679687 8.675781-8.679687 8.679688 3.886718 8.679688 8.679687zm0 0" fill="#f18d46"/><path d="m416.542969 17.355469c0 4.792969-3.886719 8.679687-8.679688 8.679687s-8.675781-3.886718-8.675781-8.679687 3.882812-8.675781 8.675781-8.675781 8.679688 3.882812 8.679688 8.675781zm0 0" fill="#f18d46"/><path d="m112.8125 17.355469c0 4.792969-3.882812 8.679687-8.675781 8.679687s-8.679688-3.886718-8.679688-8.679687 3.886719-8.675781 8.679688-8.675781 8.675781 3.882812 8.675781 8.675781zm0 0" fill="#f18d46"/><path d="m17.355469 95.457031c0 4.792969-3.886719 8.679688-8.675781 8.679688-4.792969 0-8.679688-3.886719-8.679688-8.679688s3.886719-8.675781 8.679688-8.675781c4.789062 0 8.675781 3.882812 8.675781 8.675781zm0 0" fill="#f18d46"/><path d="m175.46875 173.558594h32.800781c23.964844 0 43.390625 19.425781 43.390625 43.390625v225.628906c-.027344 9.570313-7.78125 17.324219-17.355468 17.355469h-190.914063c-4.792969 0-8.679687-3.886719-8.679687-8.679688v-269.015625c0-4.792969 3.886718-8.679687 8.679687-8.679687zm0 0" fill="#fdd7ad"/><path d="m433.898438 260.339844c-4.792969 0-8.679688-3.886719-8.679688-8.679688v-60.746094c.015625-5.488281-.257812-10.972656-.8125-16.433593-1.023438-11.246094-3.164062-22.359375-6.386719-33.175781-21.953125-73.554688-89.601562-123.964844-166.363281-123.964844s-144.410156 50.410156-166.359375 123.964844c-3.207031 10.753906-5.335937 21.800781-6.363281 32.976562-.566406 5.523438-.847656 11.078125-.832032 16.632812v60.746094c0 4.792969-3.886718 8.679688-8.679687 8.679688-4.789063 0-8.675781-3.886719-8.675781-8.679688v-60.746094c-.015625-6.101562.292968-12.203124.917968-18.273437 1.113282-12.285156 3.441407-24.425781 6.945313-36.25 24.140625-80.917969 98.558594-136.3789062 183.003906-136.3789062 84.445313 0 158.863281 55.4609372 183.003907 136.3789062 3.539062 11.886719 5.886718 24.097656 7.011718 36.449219.632813 6.003906.945313 12.039062.949219 18.074218v60.746094c0 2.300782-.917969 4.507813-2.542969 6.136719-1.628906 1.628906-3.835937 2.542969-6.136718 2.542969zm0 0" fill="#cc66a1"/><path d="m399.1875 260.339844c-4.792969 0-8.679688-3.886719-8.679688-8.679688v-60.746094c.007813-5.445312-.320312-10.890624-.980468-16.296874-8.710938-72.925782-72.710938-126.453126-146.03125-122.132813-73.316406 4.316406-130.589844 64.984375-130.683594 138.429687v60.746094c0 4.792969-3.882812 8.679688-8.675781 8.679688s-8.679688-3.886719-8.679688-8.679688v-60.746094c-.046875-75.492187 53.90625-140.21875 128.179688-153.761718 74.269531-13.546875 147.597656 27.964844 174.203125 98.613281 4.4375 11.867187 7.4375 24.222656 8.929687 36.804687.734375 6.085938 1.101563 12.214844 1.09375 18.34375v60.746094c0 2.300782-.914062 4.507813-2.539062 6.136719-1.628907 1.628906-3.835938 2.542969-6.136719 2.542969zm0 0" fill="#67b9cc"/><path d="m364.472656 260.339844c-4.789062 0-8.675781-3.886719-8.675781-8.679688v-60.746094c0-57.511718-46.625-104.132812-104.136719-104.132812-57.511718 0-104.132812 46.621094-104.132812 104.132812v60.746094c0 4.792969-3.886719 8.679688-8.679688 8.679688-4.792968 0-8.679687-3.886719-8.679687-8.679688v-60.746094c0-67.097656 54.394531-121.492187 121.492187-121.492187s121.492188 54.394531 121.492188 121.492187v60.746094c0 2.300782-.914063 4.507813-2.542969 6.136719-1.625 1.628906-3.832031 2.542969-6.136719 2.542969zm0 0" fill="#f0c419"/><path d="m329.761719 260.339844c-4.792969 0-8.675781-3.886719-8.675781-8.679688v-60.746094c-.019532-5.210937-.601563-10.410156-1.738282-15.496093-2.691406-11.445313-8.207031-22.027344-16.042968-30.789063-13.144532-14.726562-31.941407-23.144531-51.679688-23.144531-19.734375 0-38.535156 8.417969-51.675781 23.144531-7.847657 8.785156-13.367188 19.402344-16.054688 30.875-1.101562 5.0625-1.65625 10.230469-1.65625 15.410156v60.746094c0 4.792969-3.886719 8.679688-8.679687 8.679688-4.792969 0-8.675782-3.886719-8.675782-8.679688v-60.746094c.011719-6.460937.71875-12.902343 2.105469-19.210937 3.339844-14.359375 10.234375-27.644531 20.054688-38.636719 16.4375-18.398437 39.941406-28.921875 64.613281-28.921875s48.175781 10.523438 64.613281 28.921875c9.800781 10.96875 16.691407 24.222656 20.035157 38.550782 1.402343 6.335937 2.121093 12.808593 2.136718 19.296874v60.746094c0 4.792969-3.886718 8.679688-8.679687 8.679688zm0 0" fill="#e64c3c"/><path d="m121.492188 338.441406c-4.792969 0-8.679688-3.886718-8.679688-8.679687v-17.355469c0-4.792969 3.886719-8.675781 8.679688-8.675781 4.792968 0 8.675781 3.882812 8.675781 8.675781v17.355469c0 4.792969-3.882813 8.679687-8.675781 8.679687zm0 0" fill="#67b9cc"/><path d="m121.492188 390.507812c-4.792969 0-8.679688-3.882812-8.679688-8.675781v-17.359375c0-4.789062 3.886719-8.675781 8.679688-8.675781 4.792968 0 8.675781 3.886719 8.675781 8.675781v17.359375c0 4.792969-3.882813 8.675781-8.675781 8.675781zm0 0" fill="#67b9cc"/><path d="m156.203125 355.796875h-17.355469c-4.792968 0-8.679687-3.886719-8.679687-8.679687 0-4.792969 3.886719-8.675782 8.679687-8.675782h17.355469c4.792969 0 8.679687 3.882813 8.679687 8.675782 0 4.792968-3.886718 8.679687-8.679687 8.679687zm0 0" fill="#67b9cc"/><path d="m104.136719 355.796875h-17.355469c-4.792969 0-8.679688-3.886719-8.679688-8.679687 0-4.792969 3.886719-8.675782 8.679688-8.675782h17.355469c4.792969 0 8.675781 3.882813 8.675781 8.675782 0 4.792968-3.882812 8.679687-8.675781 8.679687zm0 0" fill="#67b9cc"/><path d="m190.914062 312.40625c0 4.792969-3.882812 8.679688-8.675781 8.679688s-8.679687-3.886719-8.679687-8.679688 3.886718-8.675781 8.679687-8.675781 8.675781 3.882812 8.675781 8.675781zm0 0" fill="#f18d46"/><path d="m78.101562 286.371094c0 4.792968-3.886718 8.679687-8.679687 8.679687-4.789063 0-8.675781-3.886719-8.675781-8.679687 0-4.789063 3.886718-8.675782 8.675781-8.675782 4.792969 0 8.679687 3.886719 8.679687 8.675782zm0 0" fill="#f18d46"/><path d="m182.238281 407.863281c0 4.792969-3.886719 8.679688-8.679687 8.679688-4.792969 0-8.675782-3.886719-8.675782-8.679688s3.882813-8.675781 8.675782-8.675781c4.792968 0 8.679687 3.882812 8.679687 8.675781zm0 0" fill="#f18d46"/></svg>